<svg xmlns="http://www.w3.org/2000/svg" version="1.1" xmlns:xlink="http://www.w3.org/1999/xlink" xmlns:svgjs="http://svgjs.dev/svgjs" viewBox="0 0 1920 1080"><rect width="1920" height="1080" fill="#3465a4"></rect><g transform="matrix(0.5750000000000001,0.9959292143521044,-0.9959292143521044,0.5750000000000001,935.5162517633199,-702.4893308994558)"><path d="M0,-1080C16.533621081509946,-974.9348303836015,87.96160694509405,-630.0770475957838,99.20172648905967,-449.60898230160865C110.44184603302529,-269.1409170074335,87.42104980976032,-171.96512731265935,67.44071726379372,2.808391765050999C47.46038471782711,177.58191084276135,-1.9273870231775483,419.1861717904179,-20.68026878673993,599.0321321646535C-39.433150550302315,778.8780925388891,-41.31163451791998,923.791329512384,-45.07657331758057,1081.8841540104647C-48.84151211724116,1239.9769785085455,-50.78266380430025,1367.9031048215484,-43.26990158470349,1547.5890791531376C-35.75713936510673,1727.2750534847269,-7.211650264117249,2057.9315131921894,0,2160L 1920 2160 L 1920 -1080 Z" fill="url(&quot;#SvgjsLinearGradient1088&quot;)"></path><path d="M384,-1080C403.58045690127835,-957.4932568391191,507.87487984486114,-571.6046743861893,501.48274140767023,-344.9595410347149C495.0906029704793,-118.31440768324046,366.6364531982661,84.92173806853,345.64716937685466,279.87080010884677C324.6578855554432,474.81986214916355,360.32070107664885,600.5374067171878,375.54703847920166,824.7348312071856C390.7733758817545,1048.9322556971836,435.5963668720385,1402.5111522500315,437.00519379217155,1625.055347048834C438.4140207123046,1847.5995418476364,392.8341989653619,2070.842557841472,384,2160L 1920 2160 L 1920 -1080 Z" fill="url(&quot;#SvgjsLinearGradient1089&quot;)"></path><path d="M768,-1080C784.409267897917,-984.4249210012871,857.9263467882093,-655.2461485937769,866.4556073875016,-506.5495260077225C874.9848679867938,-357.8529034216681,833.6936462483845,-315.6227085735188,819.1755635957536,-187.82026448367364C804.6574809431227,-60.01782039382849,808.9689733896047,113.5530920151161,779.3471114717161,260.2651385313484C749.7252495538274,406.97718504758063,623.8664926454163,526.8854753638279,641.4443920884218,692.45201461372C659.0222915314272,858.0185538636122,872.3053858951259,1080.127462947118,884.8145081297488,1253.6643740307013C897.3236303643716,1427.2012851142847,735.9682101844504,1582.6175434536708,716.499125496159,1733.6734811152205C697.0300408078675,1884.7294187767702,759.4165209160265,2088.9455801858703,768,2160L 1920 2160 L 1920 -1080 Z" fill="url(&quot;#SvgjsLinearGradient1090&quot;)"></path><path d="M1152,-1080C1133.541771224949,-982.5218648542492,1055.8384154597734,-681.4152545586636,1041.2506273496933,-495.1311891254953C1026.6628392396133,-308.84712369232705,1039.7811899769804,-135.9226852492178,1064.473271339519,37.704392599009594C1089.1653527020576,211.331470447237,1168.016485288211,378.48171574483433,1189.4031155249256,546.6312779638691C1210.7897457616402,714.780840182904,1200.4473600937117,869.3758931497886,1192.7930527598069,1046.6017659132185C1185.138745425902,1223.8276386766486,1150.2761136481308,1424.4201421966523,1143.4772715214963,1609.9865145444492C1136.6784293948617,1795.552886892246,1150.5795452535826,2068.3310857574083,1152,2160L 1920 2160 L 1920 -1080 Z" fill="url(&quot;#SvgjsLinearGradient1091&quot;)"></path><path d="M1536,-1080C1539.3809064512375,-926.5400186235202,1536.337792283022,-443.60005466198595,1556.2854387074244,-159.24011174112096C1576.2330851318268,125.11983117974401,1670.9598322205488,361.87684453295884,1655.6858785464146,626.1596575251899C1640.4119248722805,890.442470517421,1484.589363087022,1170.8167091331304,1464.6417166626197,1426.4567662122654C1444.6940702382174,1682.0968232914004,1524.1069527771033,2037.742794368711,1536,2160L 1920 2160 L 1920 -1080 Z" fill="url(&quot;#SvgjsLinearGradient1092&quot;)"></path></g><defs><linearGradient x1="0.1" y1="0" x2="0" y2="1" id="SvgjsLinearGradient1088"><stop stop-color="#3465a4" offset="0"></stop><stop stop-color="#3478a4" offset="0"></stop></linearGradient><linearGradient x1="0.1" y1="0" x2="0" y2="1" id="SvgjsLinearGradient1089"><stop stop-color="#34a45d" offset="0"></stop><stop stop-color="#34a44a" offset="0.2"></stop></linearGradient><linearGradient x1="0.1" y1="0" x2="0" y2="1" id="SvgjsLinearGradient1090"><stop stop-color="#92a434" offset="0"></stop><stop stop-color="#a4a334" offset="0.4"></stop></linearGradient><linearGradient x1="0.1" y1="0" x2="0" y2="1" id="SvgjsLinearGradient1091"><stop stop-color="#a43438" offset="0"></stop><stop stop-color="#a4344b" offset="0.6"></stop></linearGradient><linearGradient x1="0.1" y1="0" x2="0" y2="1" id="SvgjsLinearGradient1092"><stop stop-color="#8934a4" offset="0"></stop><stop stop-color="#7634a4" offset="0.8"></stop></linearGradient></defs></svg>